<svg xmlns="http://www.w3.org/2000/svg" viewBox="0 0 1373.27 181.16"><defs><style>.cls-1{fill:#757576;}</style></defs><title>Asset 4</title><g id="Layer_2" data-name="Layer 2"><g id="Layer_1-2" data-name="Layer 1"><path class="cls-1" d="M369.74,130.68v6.82l.92,3.36L394,134.49l-.92-3.23-5.21,1.38c-.69-.57-1-.92-1.85-1.5V113.79c0-18-14-26.95-28.1-26.95-9,0-18.28,3.59-23.6,11v2.89l7.06,6.94h2.89l7.06-6.94V97.83L348,94.48a10.38,10.38,0,0,1,8.21-4.4c6.13,0,12.38,6.59,13.3,19.78H351.69c-29,0-27.75,31-1.62,31A23.24,23.24,0,0,0,369.74,130.68Zm-10.07-17.47h10.07c0,10.53-3.59,21.63-13.31,21.63C343.83,134.84,342.21,113.21,359.67,113.21Z"/><path class="cls-1" d="M402.69,95.06c.69.57,1,.81,1.85,1.38v38.05L403,136h-5.79v3.35h30.89V136h-5.79l-1.5-1.51v-20.7c0-13,7.17-20,13.65-20,5.32,0,10.17,4.75,10.17,14.92v25.79l-1.5,1.51h-5.78v3.35h30.88V136h-5.78L461,134.49V108.93c0-14.57-9.71-21.85-19.89-21.85a23,23,0,0,0-20.24,12.37V90.08L420,86.84l-23.36,6.37.81,3.23Z"/><path class="cls-1" d="M519.15,140.86l23.48-6.37-.81-3.23-5.21,1.38c-.81-.57-1.15-.81-1.85-1.38V60.13L533.84,57l-23.48,6.25.81,3.35,5.2-1.38c.81.57,1.16.81,1.85,1.38V99.22a23.13,23.13,0,0,0-20.35-11.91c-11.91,0-23.83,8.9-23.83,26.6,0,17.92,12.15,27,24.29,27a23.78,23.78,0,0,0,19.89-10.53v7.17Zm-14.69-6.37c-6.94,0-13.88-6.82-13.88-20.58,0-13.19,6.83-19.78,13.77-19.78s13.87,6.59,13.87,19.78C518.22,127.67,511.28,134.49,504.46,134.49Z"/><path class="cls-1" d="M604.38,121.89l-3.24-.93c-2.08,8.79-8.56,16.43-20.7,16.43-12.37,0-15.84-12.84-15.61-25.1h40.71c-.12-16.31-14.23-25.45-28.68-25.45s-28.57,9.37-28.57,27c0,14.11,12.14,27.07,32.15,27.07C593.86,140.86,601.84,132.3,604.38,121.89ZM576.86,90c5.89,0,10.87,6.82,12,18.85H565.06C566.1,96.67,571.19,90,576.86,90Z"/><path class="cls-1" d="M634.56,99.22V90.08l-.92-3.24-23.37,6.37.81,3.23,5.21-1.38c.81.57,1.15.81,1.85,1.38v38.05c-.58.58-.81.93-1.39,1.51h-5.9v3.35h31V136H636a15.91,15.91,0,0,0-1.39-1.51V113.1a23.21,23.21,0,0,1,6-16.08l6.71,6.83h2.89l7.06-7.06V93.9l-7.06-7.06h-2.89C642.89,89.62,638,93.32,634.56,99.22Z"/><path class="cls-1" d="M746.28,140.86c13.41,0,21.39-8.56,23.94-19L767,121c-2.08,8.79-8.56,16.43-20.7,16.43-12.38,0-15.85-12.84-15.62-25.1h40.71c-.11-16.31-14.22-25.45-28.68-25.45s-28.56,9.37-28.56,27C714.13,127.9,726.27,140.86,746.28,140.86ZM742.69,90c5.9,0,10.87,6.82,12,18.85H730.89C731.94,96.67,737,90,742.69,90Z"/><path class="cls-1" d="M813.12,86.84c-4.39,2.78-9.25,6.48-12.72,12.38V90.08l-.93-3.24-23.36,6.37.81,3.23,5.2-1.38c.81.57,1.16.81,1.86,1.38v38.05c-.58.58-.81.93-1.39,1.51h-5.9v3.35h31V136h-5.9a17.35,17.35,0,0,0-1.39-1.51V113.1a23.21,23.21,0,0,1,6-16.08l6.71,6.83H816l7.06-7.06V93.9L816,86.84Z"/><path class="cls-1" d="M842,97.83c0-5.2,5-7.75,10.64-7.75,4.4,0,9.37,1.62,12.38,4.28l-3.36,3.47v2.89l7.06,7.06h2.89l7.05-7.06V97.83c-5.32-7.29-16.07-11-26.14-11-11.91,0-22.9,5.32-22.9,17.58,0,21.63,36.55,14.34,36.55,26.6,0,3.94-5.09,6.37-11.56,6.37-8.79,0-19.9-4.51-22.79-16.31l-3.35.81c3.35,13.53,15.61,19,27.18,19,12,0,23.47-5.9,23.47-16.08C879.15,105.23,842,110.32,842,97.83Z"/><path class="cls-1" d="M920.56,137.39c-12.38,0-15.85-12.84-15.62-25.1h40.71C945.54,96,931.43,86.84,917,86.84s-28.57,9.37-28.57,27c0,14.11,12.15,27.07,32.16,27.07,13.41,0,21.39-8.56,23.94-19l-3.24-.93C939.18,129.75,932.7,137.39,920.56,137.39ZM917,90c5.9,0,10.87,6.82,12,18.85H905.17C906.21,96.67,911.3,90,917,90Z"/><path class="cls-1" d="M663,91.82c.69.46,1.27.81,2,1.27l20.94,47.77h2.89l18.39-47.65c.69-.47,1.27-.93,2-1.39h5V88.35H697.94v3.47h4.51c.34.58.57.81.92,1.5l-9.6,24.87L682.9,93.32c.46-.69.58-.81,1-1.5h5.44V88.35h-30.2l2.41,3.47Z"/><path class="cls-1" d="M18.43,88.93a15,15,0,0,0,6.93-1.63l.19-.11a3.92,3.92,0,0,0,.34-.24l.05,0c.32-.25.79-.65,1.42-1.24l.6-.59L30.12,83V81.36l-4-4H24.51l-4,4V83l2.22,2.22c-5,1.89-11.44.25-15.38-4.15a16.44,16.44,0,0,1-3.51-16.4A16.86,16.86,0,0,1,16.92,53.46c6.15-1.17,13.53,0,20.56,1.74v79.29c-.58.58-.81.93-1.39,1.51h-5.9v3.35H64.66V136h-5.9c-.58-.58-.81-.93-1.39-1.51V91.24h0V87.07h-.12V60.24A139.47,139.47,0,0,0,82.7,62.79v71.59l-1.5,1.5H75.4v3.47h30.88v-3.47H100.5l-1.5-1.5V113.79c0-13.07,7.17-20.12,13.64-20.12,5.33,0,10.18,4.74,10.18,14.92v25.79l-1.5,1.5h-5.78v3.47h30.88v-3.47h-5.79l-1.5-1.5V108.93c0-14.57-9.71-21.85-19.89-21.85A23,23,0,0,0,99,99.45V61.5h0V57.27l-2,.28-.72.1a134.71,134.71,0,0,1-21.82,1.47A104,104,0,0,1,49,55.21l-1.53-.44C37.87,52.06,26,48.69,16.36,50.52A19.8,19.8,0,0,0,1,63.65,19.44,19.44,0,0,0,5.15,83,18.07,18.07,0,0,0,18.43,88.93Z"/><path class="cls-1" d="M182,140.86c13.42,0,21.4-8.56,23.94-19l-3.24-.93c-2.08,8.79-8.56,16.43-20.7,16.43-12.37,0-15.84-12.84-15.61-25.1h40.71C207,96,192.9,86.84,178.45,86.84s-28.57,9.37-28.57,27C149.88,127.9,162,140.86,182,140.86ZM178.45,90c5.89,0,10.87,6.82,12,18.85H166.65C167.69,96.67,172.78,90,178.45,90Z"/><path class="cls-1" d="M76.42,72l-1-.79.26,1Z"/><path class="cls-1" d="M1015.11,100.65c30.88,0,41.87-14.45,41.87-29.49,0-16.19-13.18-33-50.19-33-21.4,0-43.14,10.18-43.14,31.34A25.47,25.47,0,0,0,970.74,87h0a9.32,9.32,0,0,0,1.09,1.17h0l2.76,3,1.66.06,4.33-4,.06-1.66-4-4.34-1.66-.06-2.59,2.45-.08.16a22.5,22.5,0,0,1-5.15-14.24c0-17.23,19.43-28,37.47-28,45.68,0,41.63,55.75,9.71,55.75h-4.16V62.72a15.84,15.84,0,0,0,1.5-1.39h5.79V57.86H983.08v3.47h5.78a15.84,15.84,0,0,0,1.5,1.39V134l-1.5,1.51h-5.78v3.35h34.35v-3.35h-5.79l-1.5-1.51V100.65Z"/><path class="cls-1" d="M1091.67,86.31c-4.4,2.78-9.25,6.48-12.72,12.38V89.55l-.93-3.24-23.36,6.36.81,3.24,5.2-1.39c.81.58,1.16.81,1.85,1.39V134c-.57.58-.81.93-1.38,1.51h-5.9v3.35h31v-3.35h-5.9A15.75,15.75,0,0,0,1079,134v-21.4a23.2,23.2,0,0,1,6-16.07l6.71,6.82h2.89l7.06-7V93.37l-7.06-7.06Z"/><path class="cls-1" d="M1267.57,111.76c-.12-16.31-14.23-25.45-28.68-25.45s-28.57,9.37-28.57,27c0,14.11,12.14,27.06,32.15,27.06,13.42,0,21.4-8.56,23.94-19l-3.24-.93c-2.08,8.79-8.55,16.42-20.7,16.42-12.37,0-15.84-12.83-15.61-25.09Zm-28.68-22.33c5.9,0,10.87,6.83,12,18.86h-23.82C1228.13,96.14,1233.22,89.43,1238.89,89.43Z"/><path class="cls-1" d="M1369.92,120.55c-2,7.86-5.21,11.79-8,11.79-2.55,0-4.74-3.7-4.74-11.1v-30h11.56V87.81H1357.2V76.48a19,19,0,0,0-38.06,0,17.25,17.25,0,0,0,.7,5l2.08,7.64a12.69,12.69,0,0,1-1.27.92,20.73,20.73,0,0,0-12.26-3.58c-19.78,0-32.15,12.49-32.15,26.94,0,14.11,12.26,26.95,32.15,26.95,13.41,0,21.4-8.44,24.06-19l-3.36-.81c-2.08,8.67-8.56,16.42-20.7,16.42-11.91,0-15.61-11.68-15.61-23.6,0-12.14,3.7-23.59,15.61-23.59,7.4,0,12.84,3.36,15.84,8.33l2.2,8.09,3.36-.92-6.71-24.63a16.37,16.37,0,0,1-.47-4.17,15.56,15.56,0,0,1,31.12,0v8l-13,3.35h-7.28v3.47h5.89l1.39,1.39v25.91c0,14.69,6.83,21.74,14.23,21.74,7.17,0,15.15-6.47,18.27-19Z"/><path class="cls-1" d="M1192.88,80.29l6.07-6a4.07,4.07,0,0,0,1.2-2.87h0a4.06,4.06,0,0,0-1.18-2.85l-6.09-6.08a4,4,0,0,0-2.85-1.18h0a4,4,0,0,0-2.86,1.2l-6,6.07a4,4,0,0,0-1.16,2.83v0a4.06,4.06,0,0,0,1.18,2.85l6,6a4,4,0,0,0,2.85,1.18h0A4,4,0,0,0,1192.88,80.29Z"/><path class="cls-1" d="M1219.89,142l-5.24-.74-1.18.9-.69,5.2.89,1.19,2.53.35h.22a19.78,19.78,0,0,1-1.53,3.38,16.31,16.31,0,0,1-3.09,3.73c-6.79,5.41-15.91,6.38-22.41,6.93-1,.09-2,.14-3,.18l.86-1.17c3.43-4.66,6.38-8.81,8.11-14.44,3.16-10.29,3.1-21.28,3.08-31.89q0-7.42,0-14.85c0-3.38.79-7.92,0-11.2l-.81-3.24-28.23,7.55-7.87,1.54c-5.9-5.75-14.71-9.09-24.5-9.09-19.66,0-32,12.61-32,27s12.14,27.06,32,27.06c19.66,0,32-12.6,32-27.06a24.31,24.31,0,0,0-4.79-14.66L1180.86,95c.37.28.7.52,1.24.9v56.35a39.87,39.87,0,0,1-2.72,10.9l-4.65-.11c-3.3-.1-6.71-.2-10.07-.13-4.14.09-11.63.85-15.36,4.9a8,8,0,0,0-2.14,6.17,6.68,6.68,0,0,0,3.89,5.81c5.13,2.57,12,1.09,17-1.09a34,34,0,0,0,7.45-4.44,58,58,0,0,0,8.56-8.1c1.88,0,3.76-.1,5.63-.26,10-.86,18.08-2.84,24-7.57a20.22,20.22,0,0,0,5.82-9c.32-1,.64-2,.85-2.84a.14.14,0,0,0,0-.11,5.83,5.83,0,0,0,.06-.73l.37-2.51ZM1137,89.78c6.32,0,10.29,3.17,12.65,7.91-3.54.67-6.43,1.2-8.17,1.49-4.6.78-17.86,2.87-18.7,2.81C1124.16,95.66,1128.91,89.78,1137,89.78Zm0,47.07c-11.79,0-15.61-11.56-15.61-23.59a48.64,48.64,0,0,1,.3-5.44l29.42-6.37a42.13,42.13,0,0,1,1.51,11.81C1152.62,125.29,1148.8,136.85,1137,136.85Zm37.5,34.07a32.57,32.57,0,0,1-7.45,4.7h0c-.48.23-1,.44-1.47.64h0c-.5.19-1,.36-1.51.52a22.22,22.22,0,0,1-8.44,1.16c-2.41-.2-5.29-1.3-5.46-4.13a5.11,5.11,0,0,1,1.35-3.94c3.18-3.45,10.92-3.89,13.22-3.94,3.29-.07,6.66,0,9.92.13l3.38.09A15.78,15.78,0,0,1,1174.5,170.92Z"/><polygon class="cls-1" points="260.46 58.17 260.46 58.91 260.81 58.17 260.46 58.17"/><path class="cls-1" d="M325.62,58.17v3.37H330a16.44,16.44,0,0,0,1.05,1.51l-19.52,50.53L291.7,68.28c1.05-2.44,5.81-14.17,5.93-14.52C313,54,336.89,51.2,336.89,36c0-6.62-5.23-12-12.55-12-8.36,0-19.4,6.74-28.81,26.26l-.17.36-1.14,0-.44,0C278.31,50,267,46.16,260.21,39.09a26.34,26.34,0,0,1-7-19.44A17.55,17.55,0,0,1,260,6.71c8.06-6.11,18.61-4.19,23,1.35,2.93,3.66,4.3,9.62,1.54,13.27a9.66,9.66,0,0,1-9.37,3.76l1.42-3.67-.7-1.52-5.56-2-1.51.69-2,5.54.7,1.51,3.79,1.4h0l.32.13v0a12.65,12.65,0,0,0,15.31-4c3.78-5,2-12.46-1.58-16.95-6.6-8.25-19.63-7.61-27.2-1.87a20.36,20.36,0,0,0-8,15.1A29.09,29.09,0,0,0,258,41.17C265.41,48.82,277.4,53,293.67,53.6h.26l0,0c-.35.82-.7,1.75-1.86,4.53H260.81l-.35.74v2.63h5.34c.7.47,1.28.93,2,1.4l11.62,26.6c-2.67,6.62-5.93,14.63-9.76,24.16L247.45,63.17a16.45,16.45,0,0,0,1-1.51H254V58.17H218.41v3.49h5.22c.82.46,1.28.81,2.1,1.28L259.88,141h2.78s9.64-24,18.7-46.92L301.92,141h2.91l29.85-77.94,2.09-1.51h5.11V58.17Zm-1.28-30.66c5.46,0,9.18,3.72,9.18,8.48,0,12.19-22.07,14.29-34.27,14.29C307.85,33.32,317.49,27.51,324.34,27.51Z"/></g></g></svg>