<svg xmlns="http://www.w3.org/2000/svg" viewBox="0 0 782.12 418.86"><defs><style>.cls-1{fill:#757576;}</style></defs><title>Asset 3</title><g id="Layer_2" data-name="Layer 2"><g id="Layer_1-2" data-name="Layer 1"><path class="cls-1" d="M297.37,38.93a15,15,0,0,0,6.93-1.63l.19-.1.34-.24.05,0c.32-.25.79-.64,1.42-1.24l.6-.59L309.06,33V31.36l-4-4h-1.59l-4,4V33l2.22,2.22c-5,1.89-11.44.26-15.38-4.14a16.46,16.46,0,0,1-3.51-16.41A16.83,16.83,0,0,1,295.86,3.47c6.15-1.17,13.53,0,20.55,1.73V84.5c-.57.57-.81.92-1.38,1.5h-5.9v3.35h34.46V86h-5.9c-.57-.58-.8-.93-1.38-1.5V41.24h0V37.07h-.12V10.24a139.47,139.47,0,0,0,25.49,2.55V84.38l-1.51,1.5h-5.78v3.47h30.88V85.88h-5.78l-1.5-1.5V63.79c0-13.06,7.17-20.12,13.64-20.12,5.32,0,10.18,4.74,10.18,14.92V84.38l-1.5,1.5h-5.78v3.47h30.88V85.88h-5.79l-1.5-1.5V58.94c0-14.58-9.72-21.86-19.89-21.86a23,23,0,0,0-20.24,12.37V11.5h0V7.27l-2,.28-.72.1A134.75,134.75,0,0,1,353.4,9.13a104.06,104.06,0,0,1-25.5-3.92l-1.53-.43C316.81,2.06,304.91-1.31,295.3.52A19.8,19.8,0,0,0,280,13.66,19.43,19.43,0,0,0,284.09,33,18.07,18.07,0,0,0,297.37,38.93Z"/><path class="cls-1" d="M237.72,319c30.88,0,41.86-14.46,41.86-29.5,0-16.19-13.18-33-50.19-33-21.4,0-43.14,10.18-43.14,31.34a25.47,25.47,0,0,0,7.52,17.93l2.31-2.31a22.55,22.55,0,0,1-6.36-15.62c0-17.23,19.43-28,37.47-28,45.68,0,41.64,55.75,9.72,55.75h-4.17V281.05a15.91,15.91,0,0,0,1.51-1.39H240v-3.47H205.68v3.47h5.78a15.91,15.91,0,0,0,1.51,1.39v71.24l-1.51,1.51h-5.78v3.35H240V353.8h-5.78l-1.51-1.51V319Z"/><path class="cls-1" d="M314.27,304.64c-4.39,2.78-9.25,6.48-12.72,12.38v-9.14l-.93-3.24L277.26,311l.81,3.24,5.2-1.38a22.48,22.48,0,0,1,1.86,1.38v38.05c-.58.58-.81.93-1.39,1.51h-5.9v3.35h31V353.8h-5.9a17.35,17.35,0,0,0-1.39-1.51V330.9a23.21,23.21,0,0,1,6-16.08l6.71,6.83h2.89l7.06-7.06V311.7l-7.06-7.06Z"/><path class="cls-1" d="M490.17,330.09c-.11-16.31-14.22-25.45-28.68-25.45s-28.57,9.37-28.57,26.95c0,14.11,12.15,27.07,32.15,27.07,13.42,0,21.4-8.56,23.94-19l-3.23-.93c-2.09,8.79-8.56,16.43-20.71,16.43-12.37,0-15.84-12.84-15.61-25.1Zm-28.68-22.32c5.9,0,10.87,6.82,12,18.85H449.69C450.73,314.47,455.82,307.77,461.49,307.77Z"/><path class="cls-1" d="M577.6,358.66c7.17,0,15.15-6.48,18.27-19l-3.35-.81c-2,7.86-5.2,11.79-8,11.79-2.54,0-4.74-3.7-4.74-11.1V309.62h11.56v-3.47H579.8V294.81a19,19,0,0,0-38,0,17.37,17.37,0,0,0,.69,5l2.08,7.63a12.69,12.69,0,0,1-1.27.92A20.76,20.76,0,0,0,531,304.76c-19.78,0-32.15,12.49-32.15,26.95,0,14.11,12.26,27,32.15,27,13.42,0,21.4-8.45,24.06-19l-3.36-.81c-2.08,8.67-8.56,16.42-20.7,16.42-11.91,0-15.61-11.68-15.61-23.59,0-12.15,3.7-23.6,15.61-23.6,7.4,0,12.84,3.36,15.84,8.33l2.2,8.1,3.36-.93L545.68,299a16.36,16.36,0,0,1-.46-4.17,15.56,15.56,0,0,1,31.11,0v8l-13,3.36h-7.28v3.47H562l1.38,1.38v25.91C563.37,351.6,570.2,358.66,577.6,358.66Z"/><path class="cls-1" d="M206.21,209.7v6.83l.92,3.35,23.36-6.36-.92-3.24-5.21,1.39a22.69,22.69,0,0,0-1.85-1.5V192.82c0-18-14-26.95-28.1-26.95-9,0-18.28,3.58-23.6,11v2.89l7.06,6.94h2.89l7.06-6.94v-2.89l-3.36-3.36a10.4,10.4,0,0,1,8.21-4.39c6.13,0,12.38,6.59,13.3,19.78H188.16c-29,0-27.75,31-1.62,31A23.21,23.21,0,0,0,206.21,209.7Zm-10.07-17.46h10.07c0,10.52-3.59,21.63-13.31,21.63C180.3,213.87,178.68,192.24,196.14,192.24Z"/><path class="cls-1" d="M239.16,174.08c.69.58,1,.81,1.85,1.39v38.05l-1.5,1.5h-5.79v3.36h30.89V215h-5.79l-1.5-1.5v-20.7c0-13,7.17-20,13.65-20,5.32,0,10.17,4.74,10.17,14.92v25.79l-1.5,1.5h-5.78v3.36h30.88V215H299l-1.51-1.5V188c0-14.57-9.71-21.86-19.89-21.86a23,23,0,0,0-20.24,12.38v-9.37l-.81-3.24-23.36,6.36.81,3.24Z"/><path class="cls-1" d="M355.62,219.88l23.48-6.36-.81-3.24-5.21,1.39c-.81-.58-1.15-.81-1.85-1.39V139.15l-.92-3.12-23.48,6.25.81,3.35,5.2-1.39c.81.58,1.16.81,1.85,1.39v32.61a23.15,23.15,0,0,0-20.35-11.91c-11.91,0-23.83,8.91-23.83,26.6,0,17.93,12.15,26.95,24.29,26.95a23.77,23.77,0,0,0,19.89-10.52v7.17Zm-14.69-6.36c-6.94,0-13.88-6.82-13.88-20.59,0-13.18,6.83-19.77,13.76-19.77s13.88,6.59,13.88,19.77C354.69,206.7,347.75,213.52,340.93,213.52Z"/><path class="cls-1" d="M440.85,200.91l-3.24-.92c-2.08,8.79-8.56,16.42-20.7,16.42-12.37,0-15.84-12.84-15.61-25.1H442c-.12-16.3-14.23-25.44-28.68-25.44s-28.57,9.37-28.57,26.95c0,14.11,12.14,27.06,32.15,27.06C430.33,219.88,438.31,211.32,440.85,200.91ZM413.33,169c5.89,0,10.87,6.83,12,18.85H401.53C402.57,175.7,407.66,169,413.33,169Z"/><path class="cls-1" d="M471,178.24v-9.13l-.93-3.24-23.36,6.36.81,3.24,5.21-1.39c.81.58,1.15.81,1.85,1.39v38.05c-.58.58-.81.93-1.39,1.5h-5.9v3.36h31V215h-5.9a17.16,17.16,0,0,0-1.39-1.5v-21.4a23.18,23.18,0,0,1,6-16.07l6.71,6.82h2.89l7.06-7.05v-2.9l-7.06-7h-2.89C479.36,168.65,474.5,172.35,471,178.24Z"/><path class="cls-1" d="M582.75,219.88c13.41,0,21.39-8.56,23.94-19l-3.24-.92c-2.08,8.79-8.56,16.42-20.7,16.42-12.38,0-15.85-12.84-15.62-25.1h40.71c-.11-16.3-14.22-25.44-28.68-25.44s-28.56,9.37-28.56,26.95C550.6,206.93,562.74,219.88,582.75,219.88ZM579.16,169c5.9,0,10.87,6.83,12,18.85H567.36C568.41,175.7,573.49,169,579.16,169Z"/><path class="cls-1" d="M649.59,165.87c-4.39,2.78-9.25,6.48-12.72,12.37v-9.13l-.93-3.24-23.36,6.36.81,3.24,5.2-1.39c.81.58,1.16.81,1.86,1.39v38.05c-.58.58-.81.93-1.39,1.5h-5.9v3.36h31V215h-5.9a18.86,18.86,0,0,0-1.39-1.5v-21.4a23.18,23.18,0,0,1,6-16.07l6.71,6.82h2.89l7.06-7.05v-2.9l-7.06-7Z"/><path class="cls-1" d="M678.5,176.86c0-5.21,5-7.75,10.64-7.75,4.39,0,9.37,1.62,12.38,4.28l-3.36,3.47v2.89l7.06,7.05h2.89l7-7.05v-2.89c-5.32-7.29-16.07-11-26.14-11-11.91,0-22.9,5.32-22.9,17.58,0,21.63,36.55,14.34,36.55,26.6,0,3.93-5.09,6.36-11.56,6.36-8.79,0-19.9-4.51-22.79-16.31l-3.35.81c3.35,13.54,15.61,19,27.18,19,12,0,23.47-5.9,23.47-16.08C715.62,184.26,678.5,189.35,678.5,176.86Z"/><path class="cls-1" d="M757,216.41c-12.37,0-15.84-12.84-15.61-25.1h40.71c-.11-16.3-14.22-25.44-28.68-25.44s-28.57,9.37-28.57,26.95c0,14.11,12.15,27.06,32.15,27.06,13.42,0,21.4-8.56,24-19l-3.24-.92C775.65,208.78,769.17,216.41,757,216.41ZM753.44,169c5.9,0,10.87,6.83,12,18.85H741.64C742.68,175.7,747.77,169,753.44,169Z"/><path class="cls-1" d="M499.48,170.84c.69.47,1.27.81,2,1.27l20.94,47.77h2.89l18.39-47.65c.69-.46,1.27-.92,2-1.39h5v-3.47H534.41v3.47h4.51c.34.58.57.81.92,1.51l-9.6,24.86-10.87-24.86c.46-.7.58-.81,1-1.51h5.44v-3.47h-30.2l2.41,3.47Z"/><path class="cls-1" d="M173.14,140.77h5.09v-3.35H162v3.35h4.4a16.45,16.45,0,0,0,1,1.51L148,192.59,127.8,146.32l1.5-4c.7-.58,1.27-.93,2.08-1.51h5v-3.35H97.15v3.35h5.32c.69.46,1.27.93,2,1.39L115.65,168l-9.48,24.64L84.43,142.85a84.14,84.14,0,0,0-9.65-16.4l2.74-.85c10.83-3.42,20.83-6.43,28.86-8.8,3.55,1.49,7.31,2.9,11.31,4.23,15.14,5.06,30,9.4,45,6.91a23.49,23.49,0,0,0,8.38-2.75,9.48,9.48,0,0,0,3.76-3.86,10,10,0,0,0-.19-8.5c-3.82-7.88-14.39-10.84-30.57-8.54-7.11,1-13.49,2-19.54,4-.12,0-7.12,2-18,5.15a112.72,112.72,0,0,1-15.13-7.82C73.07,94.14,63,78.13,63,60.49c0-11.64,3.09-26.71,17.54-32.4a37.71,37.71,0,0,1,29.66,1.57c6,3.15,10.75,9.76,11.6,16.07a13,13,0,0,1-4.08,11.61,16.64,16.64,0,0,1-12,4.2,8.14,8.14,0,0,1-3.93-1.34l2.73-2.3.13-1.65-3.85-4.51-1.66-.13L94.7,55.47l-.13,1.66L97.2,60.2h0a9.12,9.12,0,0,0,1,1.21l.13.15h0a11.59,11.59,0,0,0,7.16,3.18,19.57,19.57,0,0,0,14.37-5.07A16,16,0,0,0,125,45.3c-1-7.39-6.34-14.82-13.29-18.48-9.4-4.94-22.39-5.63-32.34-1.72C63.25,31.45,59.84,47.85,59.81,60.49c0,18.78,10.59,35.77,29.94,47.81a109.94,109.94,0,0,0,12.08,6.5c-7.34,2.18-16,4.81-25.28,7.74-1.35.42-2.61.83-3.82,1.23l-.45-.58c-12.72-15-29.6-22.78-45.1-22.78C9.25,100.41,0,108.85,0,117.29c0,11.92,15.38,16.31,27.29,16.31a149.91,149.91,0,0,0,30.06-3.21.51.51,0,0,0,.18.08l39,89.41h2.89l18.28-47.42,20.7,47.42h2.89l29.84-77.6C171.86,141.7,172.44,141.35,173.14,140.77Zm-47.66-29.45c5.87-1.9,12.11-2.87,19.07-3.85,14.45-2,24.12.35,27.23,6.76a6.7,6.7,0,0,1,.19,5.69,6.35,6.35,0,0,1-2.53,2.52,20.5,20.5,0,0,1-7.24,2.33c-14.34,2.36-28.75-1.86-43.49-6.78q-3.83-1.27-7.35-2.65C120,112.84,125.34,111.36,125.48,111.32ZM27.29,130.13c-9.83,0-23.82-3.35-23.82-12.84,0-6.7,8.09-13.53,23.71-13.53,14.34,0,22.32,8.91,28.91,23.37A145.51,145.51,0,0,1,27.29,130.13Z"/><path class="cls-1" d="M461,90.86c13.42,0,21.4-8.56,23.94-19L481.67,71c-2.08,8.79-8.56,16.43-20.7,16.43-12.38,0-15.85-12.84-15.61-25.1h40.71C486,46,471.84,36.85,457.38,36.85s-28.56,9.36-28.56,26.94C428.82,77.9,441,90.86,461,90.86ZM457.38,40c5.9,0,10.88,6.82,12,18.85H445.59C446.63,46.68,451.72,40,457.38,40Z"/><polygon class="cls-1" points="410.95 279.66 402.62 288.11 402.62 291.46 410.95 299.79 414.31 299.79 422.75 291.46 422.75 288.11 414.31 279.66 410.95 279.66"/><path class="cls-1" d="M355.35,22l-1-.8.25,1Z"/><path class="cls-1" d="M633.59,346.69l0-.11h0c-.11-.21-.21-.43-.33-.65l-1-2.33-1.38-.55-4.86,2.1-.54,1.38,2.12,4.8,1.38.55,2.35-1,.17-.12a33.21,33.21,0,0,1,.42,3.4c1.57,22.73-21.8,43.62-40.07,51.37-40.66,17.25-83.07,9.88-124.64-.34l-6.88-1.72-11.14-2.84c-12-3.08-24.32-6.23-36.42-8.79l-.18-.06-2.65-.88c11.36-16.81,11.11-38.6,11.11-38.6V307.88l-.81-3.24L392,312.19l-7.87,1.54c-5.9-5.74-14.71-9.09-24.5-9.09-19.66,0-32,12.61-32,26.95s12.14,27.07,32,27.07c19.67,0,32-12.61,32-27.07a24.37,24.37,0,0,0-4.78-14.66l16.6-3.59c.37.28.71.52,1.25.9v67a26.47,26.47,0,0,1-1.5,8.55,119.87,119.87,0,0,0-20.13-.73c-4.66.28-10.47,1.06-14,4.68a8.39,8.39,0,0,0-2.05,8.16,10.79,10.79,0,0,0,7.3,7.44,20.12,20.12,0,0,0,5.64.8,23.13,23.13,0,0,0,6.08-.84,35.18,35.18,0,0,0,15.33-8.95,43.19,43.19,0,0,0,6.3-6.47l2.35.47c12.69,2.62,25.7,5.95,38.34,9.19q6.14,1.58,12.31,3.14c25.62,6.45,51.63,12.2,77.48,12.2,18.4,0,36.74-2.92,54.79-10.58,20-8.48,45.69-32.13,41.5-57.57A34.52,34.52,0,0,0,633.59,346.69Zm-274-38.58c6.31,0,10.28,3.17,12.64,7.91-3.53.67-6.43,1.2-8.17,1.5-4.6.77-17.86,2.86-18.7,2.8C346.76,314,351.51,308.11,359.61,308.11Zm0,47.08c-11.79,0-15.61-11.57-15.61-23.6a48.78,48.78,0,0,1,.3-5.44l29.42-6.37a42.13,42.13,0,0,1,1.51,11.81C375.22,343.62,371.4,355.19,359.6,355.19Zm37.51,44.69a31.34,31.34,0,0,1-11.87,6.3,18.24,18.24,0,0,1-10,.06,7.52,7.52,0,0,1-5.08-5.18,5.21,5.21,0,0,1,1.25-5.11c2.73-2.82,7.77-3.46,11.85-3.7a114.75,114.75,0,0,1,18.65.62A27.33,27.33,0,0,1,397.11,399.88Z"/></g></g></svg>