<svg xmlns="http://www.w3.org/2000/svg" viewBox="0 0 383.18 50.55"><defs><style>.cls-1{fill:#757575;}</style></defs><title>Asset 1</title><g id="Layer_2" data-name="Layer 2"><g id="Layer_1-2" data-name="Layer 1"><path class="cls-1" d="M5.14,24.81a4.16,4.16,0,0,0,1.94-.45l0,0,.09-.07h0c.09-.07.22-.18.39-.34l.17-.17.6-.59V22.7L7.28,21.58H6.84L5.73,22.7v.45l.62.62a4.05,4.05,0,0,1-4.29-1.16,4.58,4.58,0,0,1-1-4.58,4.7,4.7,0,0,1,3.64-3.11,14.17,14.17,0,0,1,5.74.48V37.53c-.16.16-.23.26-.39.42H8.42v.93H18V38H16.39c-.16-.16-.22-.26-.38-.42V25.46h0V24.3h0V16.81a39.75,39.75,0,0,0,7.11.71v20l-.42.42H21v1h8.62v-1H28l-.42-.42V31.75c0-3.65,2-5.61,3.81-5.61,1.49,0,2.84,1.32,2.84,4.16v7.2l-.42.42H32.24v1h8.61v-1H39.24l-.42-.42V30.4c0-4.07-2.71-6.1-5.55-6.1a6.44,6.44,0,0,0-5.65,3.45V17.16h0V16l-.55.08-.21,0a38.67,38.67,0,0,1-6.08.41,29.07,29.07,0,0,1-7.12-1.1l-.43-.12c-2.66-.75-6-1.69-8.66-1.18A5.49,5.49,0,0,0,.29,17.76a5.4,5.4,0,0,0,1.15,5.41A5,5,0,0,0,5.14,24.81Z"/><path class="cls-1" d="M50.79,39.3A6.59,6.59,0,0,0,57.47,34l-.9-.26a5.62,5.62,0,0,1-5.78,4.58c-3.45,0-4.42-3.58-4.35-7H57.79c0-4.55-4-7.1-8-7.1s-8,2.62-8,7.52C41.82,35.69,45.21,39.3,50.79,39.3Zm-1-14.2c1.65,0,3,1.91,3.36,5.26H46.5C46.79,27,48.21,25.1,49.79,25.1Z"/><path class="cls-1" d="M21.32,20.09,21,19.87l.07.28Z"/><path class="cls-1" d="M283.25,28.09c8.61,0,11.68-4,11.68-8.23,0-4.52-3.68-9.2-14-9.2-6,0-12,2.84-12,8.74a7.09,7.09,0,0,0,2,4.88h0a3.26,3.26,0,0,0,.31.33h0l.77.82.46,0,1.21-1.11,0-.46-1.13-1.21-.46,0-.73.68,0,.05a6.29,6.29,0,0,1-1.44-4c0-4.8,5.43-7.81,10.46-7.81,12.75,0,11.62,15.56,2.71,15.56h-1.16V17.5a5,5,0,0,0,.42-.39h1.61v-1h-9.58v1h1.61a5,5,0,0,0,.42.39V37.38l-.42.42h-1.61v.93h9.58V37.8h-1.61l-.42-.42V28.09Z"/><path class="cls-1" d="M304.61,24.08a10.29,10.29,0,0,0-3.55,3.46V25l-.26-.91-6.52,1.78.23.9,1.45-.39.52.39V37.38c-.17.16-.23.26-.39.42h-1.65v.93h8.65V37.8h-1.64a5,5,0,0,0-.39-.42v-6a6.46,6.46,0,0,1,1.68-4.49l1.87,1.91h.8l2-2v-.81l-2-2Z"/><path class="cls-1" d="M353.69,31.18c0-4.55-4-7.1-8-7.1s-8,2.62-8,7.52c0,3.94,3.39,7.55,9,7.55a6.58,6.58,0,0,0,6.68-5.29l-.91-.26a5.61,5.61,0,0,1-5.77,4.59c-3.46,0-4.43-3.59-4.36-7Zm-8-6.23c1.64,0,3,1.91,3.35,5.26h-6.65C342.68,26.83,344.1,25,345.69,25Z"/><path class="cls-1" d="M382.25,33.64c-.55,2.19-1.46,3.29-2.23,3.29s-1.32-1-1.32-3.1V25.47h3.22v-1H378.7V21.34a5.31,5.31,0,0,0-10.62,0,4.81,4.81,0,0,0,.19,1.39l.58,2.13a3.54,3.54,0,0,1-.35.26,5.77,5.77,0,0,0-3.42-1c-5.52,0-9,3.48-9,7.51s3.42,7.52,9,7.52a6.61,6.61,0,0,0,6.71-5.29l-.93-.22a5.65,5.65,0,0,1-5.78,4.58c-3.33,0-4.36-3.26-4.36-6.59s1-6.58,4.36-6.58a5,5,0,0,1,4.42,2.32l.61,2.26.94-.25-1.87-6.88a4.39,4.39,0,0,1-.13-1.16,4.34,4.34,0,0,1,8.68,0v2.23l-3.62.93h-2v1h1.65l.38.39v7.23c0,4.1,1.91,6.06,4,6.06s4.23-1.8,5.1-5.29Z"/><path class="cls-1" d="M332.85,22.4l1.69-1.67a1.09,1.09,0,0,0,.34-.8h0a1.13,1.13,0,0,0-.33-.79l-1.7-1.7a1.14,1.14,0,0,0-.8-.33h0a1.12,1.12,0,0,0-.8.34l-1.67,1.69a1.15,1.15,0,0,0-.32.79h0a1.11,1.11,0,0,0,.33.79l1.67,1.67a1.11,1.11,0,0,0,.79.33h0A1.13,1.13,0,0,0,332.85,22.4Z"/><path class="cls-1" d="M340.38,39.62l-1.46-.21-.33.25-.19,1.46.25.33.71.1h.06a5.81,5.81,0,0,1-.43.94,4.61,4.61,0,0,1-.86,1.05c-1.9,1.5-4.44,1.78-6.25,1.93l-.83,0,.24-.33a13,13,0,0,0,2.26-4,29.89,29.89,0,0,0,.86-8.89c0-1.39,0-2.77,0-4.15a14.14,14.14,0,0,0,0-3.12l-.22-.91-7.88,2.11-2.2.43a9.75,9.75,0,0,0-6.83-2.54c-5.49,0-8.94,3.52-8.94,7.52s3.39,7.55,8.94,7.55,8.94-3.51,8.94-7.55a6.79,6.79,0,0,0-1.34-4.09l4.63-1,.35.25V42.48a11.06,11.06,0,0,1-.76,3.05l-1.3,0c-.92,0-1.87-.05-2.81,0-1.15,0-3.24.24-4.28,1.37a2.23,2.23,0,0,0-.6,1.72,1.87,1.87,0,0,0,1.09,1.62c1.43.72,3.34.3,4.73-.31a10.62,10.62,0,0,0,1-.51,11.11,11.11,0,0,0,1.07-.72,16.49,16.49,0,0,0,2.39-2.26c.52,0,1.05,0,1.57-.08,2.8-.24,5-.79,6.7-2.11a5.57,5.57,0,0,0,1.62-2.51c.09-.27.18-.56.24-.79,0,0,0,0,0,0a1.36,1.36,0,0,0,0-.2l.1-.7ZM317.26,25.05a3.71,3.71,0,0,1,3.53,2.21l-2.28.42c-1.29.21-5,.8-5.22.78A4,4,0,0,1,317.26,25.05Zm0,13.14c-3.29,0-4.36-3.23-4.36-6.59,0-.51,0-1,.08-1.52l8.21-1.77a11.54,11.54,0,0,1,.42,3.29C321.61,35,320.55,38.19,317.26,38.19Zm10.46,9.5A9.18,9.18,0,0,1,325.64,49h0l-.41.18h0l-.43.14a6.26,6.26,0,0,1-2.35.33c-.67-.06-1.48-.37-1.52-1.15a1.42,1.42,0,0,1,.37-1.11c.89-1,3.05-1.08,3.69-1.09.92,0,1.86,0,2.77,0l.94,0A4.22,4.22,0,0,1,327.72,47.69Z"/><path class="cls-1" d="M103.17,36.46v1.91l.26.93,6.51-1.77-.25-.91-1.46.39c-.19-.16-.29-.26-.51-.42V31.75c0-5-3.91-7.52-7.84-7.52a8.06,8.06,0,0,0-6.59,3.07v.8l2,1.94h.81l2-1.94v-.8l-.94-.94a2.89,2.89,0,0,1,2.29-1.22c1.71,0,3.45,1.84,3.71,5.51h-5c-8.1,0-7.74,8.65-.45,8.65A6.48,6.48,0,0,0,103.17,36.46Zm-2.81-4.87h2.81c0,2.94-1,6-3.71,6C95.94,37.62,95.49,31.59,100.36,31.59Z"/><path class="cls-1" d="M112.36,26.52c.2.16.29.23.52.39V37.53l-.42.42h-1.61v.93h8.61V38h-1.61l-.42-.42V31.75c0-3.61,2-5.58,3.81-5.58,1.48,0,2.84,1.32,2.84,4.16v7.2l-.42.42H122v.93h8.62V38h-1.61l-.42-.42V30.4c0-4.07-2.71-6.1-5.55-6.1a6.42,6.42,0,0,0-5.65,3.45V25.14l-.23-.91L110.68,26l.23.9Z"/><path class="cls-1" d="M144.86,39.3l6.55-1.77-.23-.91-1.45.39a5.42,5.42,0,0,1-.52-.39V16.78l-.25-.87-6.55,1.74.22.93,1.45-.38a5.85,5.85,0,0,1,.52.38v9.1a6.47,6.47,0,0,0-5.68-3.32c-3.32,0-6.65,2.49-6.65,7.42s3.39,7.52,6.78,7.52a6.65,6.65,0,0,0,5.55-2.93v2Zm-4.1-1.77c-1.94,0-3.87-1.91-3.87-5.75,0-3.68,1.9-5.51,3.84-5.51s3.87,1.83,3.87,5.51C144.6,35.62,142.66,37.53,140.76,37.53Z"/><path class="cls-1" d="M168.64,34l-.9-.26A5.62,5.62,0,0,1,162,38.33c-3.45,0-4.42-3.58-4.36-7H169c0-4.55-4-7.1-8-7.1s-8,2.62-8,7.52c0,3.94,3.39,7.55,9,7.55A6.59,6.59,0,0,0,168.64,34ZM161,25.1c1.65,0,3,1.91,3.36,5.26h-6.65C158,27,159.38,25.1,161,25.1Z"/><path class="cls-1" d="M177.06,27.68V25.14l-.26-.91L170.28,26l.23.9,1.45-.39a5.86,5.86,0,0,1,.52.39V37.53c-.16.16-.23.26-.39.42h-1.64v.93h8.64V38h-1.64a5,5,0,0,0-.39-.42v-6a6.46,6.46,0,0,1,1.68-4.49L180.61,29h.81l2-2V26.2l-2-2h-.81A10.35,10.35,0,0,0,177.06,27.68Z"/><path class="cls-1" d="M208.23,39.3A6.59,6.59,0,0,0,214.91,34l-.9-.26a5.62,5.62,0,0,1-5.78,4.58c-3.45,0-4.42-3.58-4.35-7h11.36c0-4.55-4-7.1-8-7.1s-8,2.62-8,7.52C199.26,35.69,202.65,39.3,208.23,39.3Zm-1-14.2c1.65,0,3,1.91,3.36,5.26h-6.65C204.23,27,205.65,25.1,207.23,25.1Z"/><path class="cls-1" d="M226.88,24.23a10.43,10.43,0,0,0-3.55,3.45V25.14l-.25-.91L216.56,26l.22.9,1.46-.39c.22.16.32.23.51.39V37.53c-.16.16-.22.26-.39.42h-1.64v.93h8.65V38h-1.65a3.74,3.74,0,0,0-.39-.42v-6A6.5,6.5,0,0,1,225,27.07L226.88,29h.81l2-2V26.2l-2-2Z"/><path class="cls-1" d="M235,27.3c0-1.45,1.39-2.16,3-2.16a5.52,5.52,0,0,1,3.45,1.19l-.93,1v.8l2,2h.8l2-2v-.8c-1.48-2-4.48-3.07-7.29-3.07-3.33,0-6.39,1.49-6.39,4.91,0,6,10.2,4,10.2,7.42,0,1.1-1.42,1.77-3.23,1.77-2.45,0-5.55-1.25-6.36-4.55l-.93.23c.93,3.78,4.35,5.29,7.58,5.29s6.55-1.64,6.55-4.48C245.31,29.36,235,30.78,235,27.3Z"/><path class="cls-1" d="M256.86,38.33c-3.45,0-4.42-3.58-4.35-7h11.35c0-4.55-4-7.1-8-7.1s-8,2.62-8,7.52c0,3.94,3.39,7.55,9,7.55A6.59,6.59,0,0,0,263.54,34l-.9-.26A5.62,5.62,0,0,1,256.86,38.33Zm-1-13.23c1.65,0,3,1.91,3.36,5.26h-6.65C252.86,27,254.28,25.1,255.86,25.1Z"/><path class="cls-1" d="M185,25.62l.55.35,5.84,13.33h.81L197.33,26l.54-.39h1.39v-1h-4.52v1H196c.1.16.16.23.26.42L193.58,33l-3-6.94.29-.42h1.52v-1h-8.43l.67,1Z"/><polygon class="cls-1" points="72.67 16.23 72.67 16.44 72.77 16.23 72.67 16.23"/><path class="cls-1" d="M90.86,16.23v.94h1.23a3.82,3.82,0,0,0,.29.42l-5.44,14.1L81.39,19.05c.29-.68,1.62-4,1.66-4.05,4.27.07,11-.71,11-5A3.35,3.35,0,0,0,90.5,6.7c-2.33,0-5.41,1.88-8,7.33l0,.1H82c-4.31-.16-7.46-1.24-9.36-3.21a7.34,7.34,0,0,1-2-5.43,4.86,4.86,0,0,1,1.9-3.61A4.78,4.78,0,0,1,79,2.25c.81,1,1.2,2.68.43,3.7a2.71,2.71,0,0,1-2.62,1l.4-1L77,5.55,75.44,5l-.42.2-.56,1.54.2.42,1.06.39h0a.2.2,0,0,0,.08,0h0a3.52,3.52,0,0,0,4.27-1.11c1.06-1.4.56-3.48-.44-4.73C77.79-.58,74.16-.39,72,1.21a5.69,5.69,0,0,0-2.23,4.21A8.1,8.1,0,0,0,72,11.49c2.06,2.13,5.4,3.3,9.94,3.47H82c-.1.22-.2.48-.52,1.26H72.77l-.1.21v.73h1.5c.19.13.35.26.55.39L78,25c-.75,1.85-1.66,4.09-2.72,6.74L69,17.63c.13-.17.17-.23.3-.43h1.52v-1H60.94v1H62.4c.23.13.36.23.58.36l9.53,21.78h.78S76,32.63,78.51,26.25l5.74,13.09h.81l8.33-21.75.58-.42h1.42v-.94ZM90.5,7.68A2.39,2.39,0,0,1,93.06,10c0,3.4-6.16,4-9.56,4C85.9,9.3,88.59,7.68,90.5,7.68Z"/></g></g></svg>