<?xml version="1.0" encoding="UTF-8"?>
<svg width="818px" height="439px" viewBox="0 0 818 439" version="1.1" xmlns="http://www.w3.org/2000/svg" xmlns:xlink="http://www.w3.org/1999/xlink">
    <!-- Generator: Sketch 63.1 (92452) - https://sketch.com -->
    <title>title</title>
    <desc>Created with Sketch.</desc>
    <g id="Page-1" stroke="none" stroke-width="1" fill="none" fill-rule="evenodd">
        <g id="Desktop-HD" transform="translate(-294.000000, -168.000000)" fill="#A77091">
            <g id="title" transform="translate(294.000000, 168.000000)">
                <path d="M310.002319,40.9581786 C312.514577,40.9581786 314.974238,40.3943068 317.155446,39.2381592 C317.22145,39.2034432 317.286422,39.1666232 317.352426,39.1308552 C317.436992,39.0740472 317.557655,38.9867313 317.698944,38.8773233 C317.716476,38.8646993 317.734008,38.8510233 317.752572,38.8373473 C318.085683,38.5775034 318.568333,38.1630156 319.21393,37.5349718 L319.831681,36.912188 L322.062393,34.6682728 L322.062393,32.9892814 L317.918612,28.7612948 L316.27265,28.7612948 L312.185591,32.9892814 L312.185591,34.6682728 L314.475086,37.003712 C309.30722,38.9877833 302.674901,37.2688159 298.611562,32.6400175 C294.363619,27.8039752 293.011579,21.3499574 294.991684,15.3777555 C297.014072,9.27615767 302.045806,4.8914232 308.4533,3.64690764 C314.790665,2.41606807 322.402723,3.66689563 329.647637,5.467919 L329.647637,39.0004073 L329.647637,88.8893858 C329.053605,89.4984936 328.813311,89.8635374 328.216186,90.4715932 L322.134584,90.4715932 L322.134584,94 L357.67849,94 L357.67849,90.4715932 L351.594825,90.4715932 C350.9977,89.8635374 350.7605,89.4984936 350.162344,88.8893858 L350.162344,43.3882977 L350.128311,43.3882977 L350.128311,39.0004073 L349.997335,39.0004073 L349.997335,10.7763091 C358.145671,12.3774526 367.326343,13.4368162 376.285284,13.4547002 L376.278065,88.7673538 L374.726983,90.3495613 L368.765012,90.3495613 L368.765012,94 L400.610661,94 L400.610661,90.3495613 L394.646627,90.3495613 L393.096577,88.7673538 L393.096577,67.1119414 C393.096577,53.3633582 400.491029,45.9404488 407.170788,45.9404488 C412.657327,45.9404488 417.666373,50.9290311 417.666373,61.6362833 L417.666373,88.7673538 L416.116322,90.3495613 L410.15332,90.3495613 L410.15332,94 L442,94 L442,90.3495613 L436.034935,90.3495613 L434.483854,88.7673538 L434.483854,62.0013272 C434.483854,46.6694846 424.465763,39.0056673 413.969147,39.0056673 C405.9786,39.0056673 397.628128,43.3861937 393.096577,52.0252147 L393.096577,26.1660118 L393.096577,12.0955167 L393.096577,12.0944647 L393.096577,7.65187024 L391.040156,7.94222213 C390.769954,7.97799012 390.512128,8.01375811 390.29246,8.0484741 C383.283716,9.15307371 374.311367,9.78006549 367.785273,9.60017355 C358.985153,9.35821364 350.195345,7.98325012 341.491136,5.479491 L339.914272,5.02397516 C330.05397,2.17200416 317.783511,-1.3763906 307.874738,0.546664724 C300.35756,2.00684021 294.446124,7.1732104 292.061748,14.3667839 C289.718624,21.4309614 291.305802,29.0495427 296.307628,34.7461207 C299.838814,38.7679153 305.014931,40.9581786 310.002319,40.9581786" id="Fill-1"></path>
                <path d="M249.487963,334.55233 C281.581572,334.55233 293,319.608809 293,304.068912 C293,287.334195 279.297263,270 240.833985,270 C218.596786,270 196,280.520826 196,302.395544 C196,309.329842 198.886045,316.023315 203.81321,320.924558 L206.218075,318.532851 C202.010082,314.230051 199.606257,308.372745 199.606257,302.395544 C199.606257,284.584868 219.800257,273.466632 238.550715,273.466632 C286.027557,273.466632 281.820603,331.084664 248.647196,331.084664 L244.318648,331.084664 L244.318648,295.343417 C244.920384,294.864869 245.281009,294.506216 245.882745,293.908806 L251.892827,293.908806 L251.892827,290.322279 L216.192961,290.322279 L216.192961,293.908806 L222.203043,293.908806 C222.803739,294.506216 223.165404,294.864869 223.766101,295.343417 L223.766101,368.978861 L222.203043,370.533368 L216.192961,370.533368 L216.192961,374 L251.892827,374 L251.892827,370.533368 L245.882745,370.533368 L244.318648,368.978861 L244.318648,334.55233 L249.487963,334.55233 Z" id="Fill-4"></path>
                <path d="M329.621872,320 C325.034416,322.853905 319.966926,326.661169 316.346843,332.726875 L316.346843,323.329042 L315.381557,320 L291,326.540842 L291.844234,329.872969 L297.275924,328.444474 C298.121201,329.038909 298.483314,329.277506 299.206496,329.872969 L299.206496,369.003866 C298.604366,369.59933 298.362262,369.956196 297.759088,370.550631 L291.603173,370.550631 L291.603173,374 L323.949121,374 L323.949121,370.550631 L317.793206,370.550631 C317.311085,369.956196 316.947929,369.59933 316.346843,369.003866 L316.346843,346.999486 C316.346843,339.862152 319.120605,334.034015 322.622766,330.466376 L329.621872,337.484412 L332.640869,337.484412 L340,330.228808 L340,327.254576 L332.640869,320 L329.621872,320 Z" id="Fill-6"></path>
                <path d="M483.938689,323.352514 C490.121155,323.352514 495.332076,330.681441 496.543625,343.59646 L471.574805,343.59646 C472.665828,330.555802 477.999371,323.352514 483.938689,323.352514 L483.938689,323.352514 Z M514,347.322669 C513.879474,329.811634 499.090395,320 483.938689,320 C468.907509,320 454,330.05969 454,348.937718 C454,364.088462 466.727559,378 487.697008,378 C501.75769,378 510.121155,368.807969 512.787402,357.630415 L509.392758,356.637118 C507.211759,366.076131 500.423518,374.273791 487.697008,374.273791 C474.726301,374.273791 471.089556,360.487892 471.333753,347.322669 L514,347.322669 Z" id="Fill-8"></path>
                <path d="M602.792023,378 C610.328892,378 618.717205,371.194228 622,358.072262 L618.475437,357.221278 C616.407791,365.484229 613.005163,369.61623 610.086072,369.61623 C607.412954,369.61623 605.101438,365.725866 605.101438,357.950392 L605.101438,326.479737 L617.259236,326.479737 L617.259236,322.835213 L605.101438,322.835213 L605.101438,310.926688 C605.101438,299.992066 596.10555,291 585.043067,291 C574.101469,291 565.103478,299.992066 565.103478,310.926688 C565.103478,312.749475 565.3484,314.572262 565.83509,316.152361 L568.022569,324.171573 C567.413943,324.65695 567.413943,324.65695 566.684433,325.143376 C563.157768,322.592525 558.660875,321.376983 553.798176,321.376983 C533.008193,321.376983 520,334.5 520,349.687441 C520,364.512426 532.887309,378 553.798176,378 C567.900634,378 576.288947,369.129803 579.085052,358.072262 L575.559437,357.221278 C573.371959,366.334163 566.563549,374.475245 553.798176,374.475245 C541.276673,374.475245 537.385253,362.203212 537.385253,349.687441 C537.385253,336.928982 541.276673,324.900688 553.798176,324.900688 C561.578915,324.900688 567.293059,328.424393 570.451816,333.647965 L572.763333,342.154655 L576.288947,341.182852 L569.236667,315.302427 C568.872963,313.966067 568.751028,312.384917 568.751028,310.926688 C568.751028,301.935672 576.045077,294.645574 585.043067,294.645574 C594.16089,294.645574 601.45599,301.935672 601.45599,310.926688 L601.45599,319.311508 L587.837069,322.835213 L580.179317,322.835213 L580.179317,326.479737 L586.380151,326.479737 L587.837069,327.937966 L587.837069,355.154752 C587.837069,370.588033 595.011285,378 602.792023,378" id="Fill-10"></path>
                <path d="M204.48094,201.316491 L214.886422,201.316491 C214.886422,212.618818 211.178377,224.54076 201.132739,224.54076 C188.096676,224.54076 186.423609,201.316491 204.48094,201.316491 M214.886422,220.0703 L214.886422,227.397215 L215.842903,231 L240,224.168132 L239.043519,220.692063 L233.662407,222.180426 C232.944788,221.560812 232.584944,221.188184 231.747377,220.567496 L231.747377,201.938253 C231.747377,182.562682 217.277108,173 202.687926,173 C193.358873,173 183.791993,176.848697 178.290933,184.797375 L178.290933,187.902964 L185.586042,195.35552 L188.575433,195.35552 L195.871575,187.902964 L195.871575,184.797375 L192.403426,181.196738 C194.794112,177.967655 197.903452,176.477144 200.893877,176.477144 C207.232504,176.477144 213.689011,183.555998 214.645492,197.71478 L196.229351,197.71478 C166.211351,197.71478 167.527676,231 194.55525,231 C202.209168,231 209.983034,227.647424 214.886422,220.0703" id="Fill-12"></path>
                <path d="M249.300461,182.444474 C250.02647,183.037881 250.392094,183.277506 251.240676,183.871941 L251.240676,223.003866 L249.665037,224.550631 L243.605531,224.550631 L243.605531,228 L275.957466,228 L275.957466,224.550631 L269.899008,224.550631 L268.323369,223.003866 L268.323369,201.713219 C268.323369,188.390881 275.835941,181.136306 282.621456,181.136306 C288.195907,181.136306 293.284258,186.013141 293.284258,196.478489 L293.284258,223.003866 L291.708619,224.550631 L285.650161,224.550631 L285.650161,228 L318,228 L318,224.550631 L311.943637,224.550631 L310.367998,223.003866 L310.367998,196.717085 C310.367998,181.729712 300.189202,174.237568 289.527448,174.237568 C281.410393,174.237568 272.927713,178.517912 268.323369,186.964443 L268.323369,177.329042 L267.475835,174 L243,180.540842 L243.848582,183.871941 L249.300461,182.444474 Z" id="Fill-14"></path>
                <path d="M356.488955,225.399077 C349.306446,225.399077 342.121867,218.319841 342.121867,204.038938 C342.121867,190.359817 349.184288,183.520256 356.368867,183.520256 C363.552411,183.520256 370.739061,190.359817 370.739061,204.038938 C370.739061,218.319841 363.552411,225.399077 356.488955,225.399077 L356.488955,225.399077 Z M371.694589,232 L396,225.399077 L395.161454,222.040512 L389.774055,223.478563 C388.936544,222.879894 388.577315,222.639181 387.859892,222.040512 L387.859892,148.240283 L386.902294,145 L362.595847,151.480567 L363.434393,154.959488 L368.821793,153.519362 C369.660339,154.120106 370.018532,154.359781 370.739061,154.959488 L370.739061,188.799335 C366.188137,180.638967 357.925871,176.439983 349.663605,176.439983 C337.332838,176.439983 325,185.679408 325,204.038938 C325,222.639181 337.571978,232 350.142922,232 C358.046994,232 365.947961,228.279329 370.739061,221.079737 L370.739061,228.519004 L371.694589,232 Z" id="Fill-16"></path>
                <path d="M430.939214,176.352514 C437.119476,176.352514 442.33345,183.681441 443.544978,196.597534 L418.575546,196.597534 C419.665502,183.555802 425,176.352514 430.939214,176.352514 M459.785328,210.630415 L456.393886,209.637118 C454.211878,219.076131 447.422707,227.273791 434.696419,227.273791 C421.726987,227.273791 418.091354,213.487892 418.33345,200.322669 L461,200.322669 C460.87738,182.812708 446.089607,173 430.939214,173 C415.907249,173 401,183.05969 401,201.937718 C401,217.088462 413.726288,231 434.696419,231 C448.757904,231 457.120175,221.807969 459.785328,210.630415" id="Fill-18"></path>
                <path d="M491.345259,186.726632 L491.345259,177.330007 L490.378951,174 L466,180.541746 L466.844216,183.872781 L472.27579,182.445342 C473.120006,183.038737 473.483154,183.277329 474.206321,183.872781 L474.206321,223.003961 C473.60316,223.599413 473.363148,223.955245 472.757901,224.550697 L466.604204,224.550697 L466.604204,228 L498.949463,228 L498.949463,224.550697 L492.793679,224.550697 C492.310525,223.955245 491.94842,223.599413 491.345259,223.003961 L491.345259,200.998972 C491.345259,193.862802 494.121049,188.034776 497.621049,184.466177 L504.621049,191.485107 L507.637895,191.485107 L515,184.229641 L515,181.255466 L507.637895,174 L504.621049,174 C500.033691,176.853851 494.965265,180.661042 491.345259,186.726632" id="Fill-20"></path>
                <path d="M604.938164,176.352514 C611.120738,176.352514 616.332798,183.681441 617.544368,196.597534 L592.574064,196.597534 C593.666154,183.555802 598.998742,176.352514 604.938164,176.352514 M608.696548,231 C622.757476,231 631.121087,221.807969 633.787381,210.630415 L630.393726,209.637118 C628.211641,219.076131 621.423281,227.273791 608.696548,227.273791 C595.725615,227.273791 592.088807,213.487892 592.333007,200.322669 L635,200.322669 C634.879472,182.812708 620.091182,173 604.938164,173 C589.90777,173 575,183.05969 575,201.937718 C575,217.088462 587.725685,231 608.696548,231" id="Fill-22"></path>
                <path d="M678.621271,174 C674.03401,176.853905 668.965692,180.661169 665.34472,186.726875 L665.34472,177.33007 L664.380518,174 L640,180.541871 L640.846285,183.872969 L646.2767,182.444474 C647.120898,183.038909 647.484039,183.277506 648.20719,183.872969 L648.20719,223.003866 C647.604042,223.59933 647.364035,223.956196 646.758801,224.55166 L640.605235,224.55166 L640.605235,228 L672.949805,228 L672.949805,224.55166 L666.793109,224.55166 C666.309964,223.956196 665.948911,223.59933 665.34472,223.003866 L665.34472,200.999486 C665.34472,193.862152 668.120451,188.034015 671.620376,184.466376 L678.621271,191.484412 L681.638052,191.484412 L689,184.228808 L689,181.254576 L681.638052,174 L678.621271,174 Z" id="Fill-24"></path>
                <path d="M708.157119,184.797375 C708.157119,179.207958 713.360234,176.47607 719.289462,176.47607 C723.887832,176.47607 729.091993,178.214641 732.238136,181.071097 L728.726844,184.797375 L728.726844,187.902964 L736.109345,195.480087 L739.135167,195.480087 L746.515576,187.902964 L746.515576,184.797375 C740.951496,176.973265 729.695693,173 719.167048,173 C706.704892,173 695.209491,178.711836 695.209491,191.876229 C695.209491,215.102646 733.447627,207.277462 733.447627,220.441854 C733.447627,224.665327 728.124191,227.274796 721.347481,227.274796 C712.149696,227.274796 700.532928,222.429561 697.508153,209.762363 L694,210.631112 C697.508153,225.161449 710.335459,231 722.434559,231 C735.021222,231 747,224.665327 747,213.735628 C747,192.746052 708.157119,198.211975 708.157119,184.797375" id="Fill-26"></path>
                <path d="M787.939212,176.352514 C794.120738,176.352514 799.332798,183.681441 800.544368,196.597534 L775.575112,196.597534 C776.666154,183.555802 781.998742,176.352514 787.939212,176.352514 M791.697596,227.273791 C778.725615,227.273791 775.089855,213.487892 775.334055,200.322669 L818,200.322669 C817.879472,182.812708 803.091182,173 787.939212,173 C772.90777,173 758,183.05969 758,201.937718 C758,217.088462 770.726733,231 791.697596,231 C805.757476,231 814.122135,221.807969 816.788429,210.630415 L813.393726,209.637118 C811.211641,219.076131 804.424329,227.273791 791.697596,227.273791" id="Fill-28"></path>
                <path d="M521.039638,180.568531 C521.771143,181.04365 522.382314,181.400503 523.116985,181.87665 L545.210967,231 L548.26471,231 L567.676506,181.995944 C568.406956,181.519797 569.019182,181.04365 569.750687,180.568531 L575,180.568531 L575,177 L557.909385,177 L557.909385,180.568531 L562.668917,180.568531 C563.036253,181.163972 563.280088,181.400503 563.645313,182.115237 L553.514023,207.687311 L542.037946,182.115237 C542.525616,181.400503 542.649116,181.283266 543.137842,180.568531 L548.873769,180.568531 L548.873769,177 L517,177 L519.541795,180.568531 L521.039638,180.568531 Z" id="Fill-30"></path>
                <path d="M28.3313882,137.293189 C18.1277704,137.293189 3.60188749,133.790237 3.60188749,123.888006 C3.60188749,116.885236 12.0045616,109.759263 28.2130553,109.759263 C43.100165,109.759263 51.3813922,119.059049 58.2249784,134.153584 C48.6202911,136.084122 38.776862,137.293189 28.3313882,137.293189 M130.24612,117.651604 C136.343379,115.670949 142.81951,114.658173 150.045083,113.627648 C165.045336,111.487246 175.084948,113.999347 178.310039,120.693064 C179.256702,122.653881 179.331439,124.930016 178.50726,126.635029 C178.043271,127.5956 177.15785,128.478908 175.877986,129.259893 C173.495758,130.709102 170.610096,131.324076 168.363847,131.69682 C153.480889,134.159848 138.519043,129.752708 123.22192,124.611566 C120.577076,123.723038 118.036033,122.804231 115.589448,121.852013 C124.527734,119.238634 130.100799,117.693368 130.24612,117.651604 M179.71654,148.401354 L185,148.401354 L185,144.900491 L168.191538,144.900491 L168.191538,148.401354 L172.754621,148.401354 C173.235218,149.127003 173.353551,149.36819 173.834149,149.972723 L153.665655,202.500283 L132.658451,154.197146 L134.217538,149.972723 C134.936878,149.36819 135.537884,149.005887 136.378671,148.401354 L141.540684,148.401354 L141.540684,144.900491 L100.84247,144.900491 L100.84247,148.401354 L106.36571,148.401354 C107.085049,148.884772 107.686056,149.36819 108.406433,149.850563 L120.049768,176.779956 L110.207377,202.500283 L87.6369329,150.575168 C84.6858764,144.162314 81.494002,138.458403 77.6211944,133.445685 C78.5356794,133.163778 79.4761146,132.871431 80.4622221,132.558201 C91.712152,128.984251 102.087041,125.842558 110.419131,123.374309 C114.109249,124.930016 118.014235,126.399063 122.166266,127.792935 C137.878592,133.072942 153.280554,137.599109 168.906725,135.005568 C171.447769,134.583752 174.734102,133.874809 177.605232,132.129076 C179.443544,131.007715 180.755586,129.653519 181.506065,128.101988 C182.766207,125.492785 182.69147,122.0932 181.309882,119.229237 C177.347806,111.000696 166.370872,107.91434 149.576942,110.30637 C142.195667,111.357778 135.570063,112.3977 129.291153,114.439957 C129.165554,114.474412 121.906764,116.485346 110.624656,119.818109 C104.866826,117.334198 99.6695207,114.627895 94.9185585,111.654302 C75.8513909,99.7108569 65.374777,82.9948372 65.4152593,64.5832013 C65.4432855,52.4246723 68.6227038,36.686973 83.6188042,30.7544044 C93.0927025,27.0060902 105.470947,27.6659605 114.412347,32.3925952 C120.619635,35.6773296 125.570932,42.5756895 126.452201,49.1670844 C126.892316,52.4622598 126.51552,57.2400553 122.211939,61.2848936 C119.026292,64.2804127 114.355257,65.9196476 109.743388,65.6742844 C108.352457,65.6001534 106.896132,65.0760158 105.674397,64.2793686 L108.500892,61.8789857 L108.635833,60.146826 L104.636389,55.4473379 L102.915371,55.3116051 L98.3003883,59.3386937 L98.1664852,61.0718975 L100.895408,64.2783245 L100.891256,64.2825009 C101.204734,64.7304192 101.578417,65.1480587 101.977012,65.5500366 L102.110915,65.7066514 L102.13998,65.7087396 C104.094548,67.59647 106.874334,68.8807114 109.567964,69.024797 C115.156599,69.3161005 120.598874,67.394959 124.48829,63.7353932 C128.717134,59.7605095 130.538838,54.5692509 129.757218,48.7202102 C128.725438,40.9980564 123.182476,33.2435356 115.965207,29.4242227 C106.213123,24.2684635 92.7262857,23.5490795 82.3970689,27.6335935 C65.6581531,34.2542231 62.1102421,51.3784854 62.0811778,64.5769367 C62.0375815,84.1903302 73.0736817,101.922258 93.157059,114.500515 C97.0350566,116.930132 101.195392,119.181209 105.699309,121.280891 C98.0772166,123.557026 89.088068,126.301962 79.4584685,129.361171 C78.0561198,129.807001 76.7471918,130.234037 75.4932782,130.650633 L75.0324027,130.048188 C61.8268659,114.348076 44.2990641,106.2584 28.2130553,106.2584 C9.60468731,106.2584 0,115.073725 0,123.888006 C0,136.326353 15.9676759,140.915167 28.3313882,140.915167 C39.2076352,140.915167 49.6053606,139.598558 59.5276783,137.560478 C59.5691987,137.594933 59.6325171,137.621035 59.7124438,137.642962 L100.242501,231 L103.245458,231 L122.212977,181.488841 L143.701817,231 L146.70166,231 L177.675816,149.972723 C178.395156,149.36819 178.996162,149.005887 179.71654,148.401354" id="Fill-32"></path>
                <path d="M478.939212,42.3515025 C485.120738,42.3515025 490.332798,49.6805651 491.544368,62.5968969 L466.575112,62.5968969 C467.666154,49.5559979 472.998742,42.3515025 478.939212,42.3515025 M482.696548,97 C496.757476,97 505.122135,87.8088723 507.787381,76.6300383 L504.393726,75.6367221 C502.211641,85.0759105 495.424329,93.273722 482.696548,93.273722 C469.725615,93.273722 466.089855,79.4875673 466.333007,66.3221011 L509,66.3221011 C508.879472,48.8118161 494.091182,39 478.939212,39 C463.90777,39 449,49.0588028 449,67.9382533 C449,83.0892781 461.725685,97 482.696548,97" id="Fill-35"></path>
                <polygon id="Fill-37" points="430.275691 295 422 303.390559 422 306.723727 430.275691 315 433.609024 315 442 306.723727 442 303.390559 433.609024 295"></polygon>
                <path d="M373,25.5864811 C372.322987,25.0477137 371.642095,24.5089463 371,24 L371.486906,26 L373,25.5864811 Z" id="Fill-39"></path>
                <path d="M414.624063,419.228311 C410.857094,422.363317 406.671342,424.590849 402.233901,425.786923 C398.577633,426.772538 395.064441,426.793376 391.797716,425.848394 C389.249504,425.110745 387.168115,422.992611 386.492421,420.451474 C386.182249,419.289782 385.938916,417.051831 387.798902,415.132695 C390.651021,412.193561 395.910365,411.527802 400.176532,411.274626 C405.865104,410.9381 412.004834,411.138141 419.65365,411.91538 C418.330459,414.651348 416.621903,417.144558 414.624063,419.228311 M375.458869,372.658518 C363.138678,372.658518 359.15344,360.607134 359.15344,348.076486 C359.15344,346.156308 359.25892,344.256967 359.462568,342.406594 L390.193595,335.7688 C391.299562,339.490382 391.764297,343.740196 391.764297,348.076486 C391.764297,360.607134 387.779059,372.658518 375.458869,372.658518 M375.458869,323.614269 C382.051847,323.614269 386.197914,326.918059 388.667801,331.852386 C384.973937,332.551485 381.953678,333.107847 380.13651,333.411033 C375.327281,334.215362 361.481295,336.399135 360.601953,336.330371 C362.045244,329.743628 367.007993,323.614269 375.458869,323.614269 M661.591828,363.804653 C661.581385,363.766103 661.574074,363.727554 661.563631,363.689004 L661.538566,363.696297 C661.426821,363.469168 661.327608,363.240997 661.197064,363.018036 L660.160025,360.584213 L658.718823,360.014306 L653.651639,362.202247 L653.08038,363.640036 L655.293356,368.64521 L656.735603,369.215117 L659.187736,368.15657 L659.371541,368.035713 C659.583544,369.221368 659.727664,370.40494 659.809123,371.583302 C661.444575,395.256818 637.038127,417.020575 617.96204,425.100327 C575.502967,443.073737 531.206884,435.389898 487.795365,424.742963 C485.398583,424.155345 483.004934,423.556266 480.612329,422.954061 C476.723172,421.974697 472.841325,420.983873 468.970966,419.993048 C456.445038,416.787195 443.57343,413.5032 430.935757,410.835996 C430.875185,410.815159 430.813569,410.795363 430.750908,410.774526 L427.980248,409.859758 C439.851369,392.33748 439.590282,369.64437 439.590282,369.64437 L439.590282,323.372554 L438.744358,320 L409.258195,327.862 C406.534532,328.397524 403.758651,328.941384 401.037076,329.471699 C394.88168,323.480909 385.679917,320 375.458869,320 C354.924869,320 342,333.133894 342,348.076486 C342,362.897178 354.683624,376.272788 375.458869,376.272788 C395.991824,376.272788 408.916693,363.13681 408.916693,348.076486 C408.916693,342.218015 407.065061,337.064894 403.919481,332.804661 L421.259859,329.060157 C421.645224,329.353967 421.996126,329.599849 422.55903,330.000972 L422.55903,399.785855 C422.55903,402.815632 421.983594,405.831864 420.996683,408.687647 C412.687839,407.804136 406.095905,407.568672 399.977061,407.934371 C395.104127,408.221928 389.043767,409.035634 385.388544,412.806185 C383.191232,415.071224 382.412148,418.169765 383.247627,421.311022 C384.220961,424.962799 387.208845,428.004036 390.863023,429.063625 C392.772094,429.613735 394.742782,429.889833 396.760465,429.889833 C398.83141,429.889833 400.952484,429.599149 403.108021,429.018824 C408.969955,427.439339 414.411016,424.251197 419.117899,419.687779 C421.606584,417.641533 423.77883,415.365033 425.698345,412.953089 C426.51607,413.115622 427.331707,413.272945 428.151522,413.441729 C441.405361,416.167278 454.992348,419.641936 468.193969,423.020741 C472.465359,424.11367 476.74928,425.20764 481.04469,426.28494 C507.808234,433.002959 534.963409,439 561.960888,439 C581.183184,439 600.328199,435.959805 619.186017,427.976947 C640.042721,419.142877 666.898168,394.5025 662.527565,367.998205 C662.297808,366.604175 662.000169,365.207018 661.591828,363.804653" id="Fill-41"></path>
            </g>
        </g>
    </g>
</svg>